<svg width="1920" height="1400" viewBox="0 0 1920 1400" fill="none" xmlns="http://www.w3.org/2000/svg">
<g clip-path="url(#clip0_100_142)">
<rect width="1920" height="1400" fill="#011627"/>
<g opacity="0.07" filter="url(#filter0_f_100_142)">
<path fill-rule="evenodd" clip-rule="evenodd" d="M309.809 325.139C449.361 308.461 588.749 374.223 676.893 477.623C765.447 581.504 798.813 722.655 757.286 850.066C718.795 968.16 599.809 1037.37 478.937 1084.98C367.771 1128.77 246.404 1139.53 135.58 1094.97C17.6793 1047.57 -96.3324 964.896 -116.648 845.541C-136.033 731.659 -31.3985 644.595 43.3856 553.336C120.569 459.15 184.6 340.104 309.809 325.139Z" fill="#41EAD4"/>
</g>
<g opacity="0.11" filter="url(#filter1_f_100_142)">
<path fill-rule="evenodd" clip-rule="evenodd" d="M204.286 324.505C309.496 311.928 414.583 361.517 481.036 439.486C547.798 517.818 572.953 624.255 541.645 720.329C512.626 809.38 422.921 861.565 331.794 897.47C247.984 930.491 156.484 938.601 72.9314 905.005C-15.9554 869.263 -101.911 806.918 -117.227 716.917C-131.841 631.044 -52.956 565.393 3.42491 496.579C61.615 425.557 109.888 335.789 204.286 324.505Z" fill="#BE41EA"/>
</g>
<g opacity="0.5" filter="url(#filter2_f_100_142)">
<path d="M71.2877 405.985C21.3745 365.508 55.6924 304.497 79.0905 279.051C-206.84 350.022 -50.3183 402.856 -59.2374 483.02C-68.1564 563.184 100.961 549.7 128.613 516.452C156.265 483.203 133.679 456.581 71.2877 405.985Z" fill="#41EAD4"/>
</g>
<g opacity="0.5" filter="url(#filter3_f_100_142)">
<path d="M1817.3 681.014C1885.31 625.856 1838.55 542.716 1806.66 508.041C2196.3 604.754 1983.01 676.751 1995.16 785.991C2007.32 895.23 1776.86 876.856 1739.18 831.548C1701.5 786.24 1732.27 749.962 1817.3 681.014Z" fill="#41EAD4"/>
</g>
<g opacity="0.5" filter="url(#filter4_f_100_142)">
<path d="M1723.18 569.99C1757.67 542.019 1733.95 499.858 1717.78 482.274C1915.37 531.318 1807.21 567.829 1813.37 623.225C1819.54 678.621 1702.67 669.303 1683.56 646.327C1664.45 623.351 1680.06 604.954 1723.18 569.99Z" fill="#7741EA"/>
</g>
<g opacity="0.5" filter="url(#filter5_f_100_142)">
<path d="M98.847 521.149C124.158 500.623 106.756 469.684 94.8902 456.78C239.887 492.77 160.514 519.562 165.037 560.214C169.56 600.865 83.7994 594.028 69.777 577.167C55.7545 560.307 67.2079 546.807 98.847 521.149Z" fill="#7741EA"/>
</g>
<g opacity="0.1" filter="url(#filter6_f_100_142)">
<path fill-rule="evenodd" clip-rule="evenodd" d="M1639.79 270.724C1787.15 253.108 1934.33 322.565 2027.41 431.774C2120.91 541.491 2156.14 690.573 2112.3 825.14C2071.65 949.87 1946.01 1022.96 1818.38 1073.25C1701 1119.51 1572.84 1130.87 1455.82 1083.81C1331.32 1033.75 1210.94 946.422 1189.48 820.361C1169.01 700.081 1279.5 608.126 1358.47 511.741C1439.97 412.263 1507.58 286.529 1639.79 270.724Z" fill="#7741EA"/>
</g>
</g>
<defs>
<filter id="filter0_f_100_142" x="-369" y="72.56" width="1394" height="1301" filterUnits="userSpaceOnUse" color-interpolation-filters="sRGB">
<feFlood flood-opacity="0" result="BackgroundImageFix"/>
<feBlend mode="normal" in="SourceGraphic" in2="BackgroundImageFix" result="shape"/>
<feGaussianBlur stdDeviation="125" result="effect1_foregroundBlur_100_142"/>
</filter>
<filter id="filter1_f_100_142" x="-369" y="72.56" width="1174" height="1104" filterUnits="userSpaceOnUse" color-interpolation-filters="sRGB">
<feFlood flood-opacity="0" result="BackgroundImageFix"/>
<feBlend mode="normal" in="SourceGraphic" in2="BackgroundImageFix" result="shape"/>
<feGaussianBlur stdDeviation="125" result="effect1_foregroundBlur_100_142"/>
</filter>
<filter id="filter2_f_100_142" x="-344.062" y="29.0512" width="734.318" height="763.55" filterUnits="userSpaceOnUse" color-interpolation-filters="sRGB">
<feFlood flood-opacity="0" result="BackgroundImageFix"/>
<feBlend mode="normal" in="SourceGraphic" in2="BackgroundImageFix" result="shape"/>
<feGaussianBlur stdDeviation="125" result="effect1_foregroundBlur_100_142"/>
</filter>
<filter id="filter3_f_100_142" x="1473.31" y="258.041" width="819.307" height="859.141" filterUnits="userSpaceOnUse" color-interpolation-filters="sRGB">
<feFlood flood-opacity="0" result="BackgroundImageFix"/>
<feBlend mode="normal" in="SourceGraphic" in2="BackgroundImageFix" result="shape"/>
<feGaussianBlur stdDeviation="125" result="effect1_foregroundBlur_100_142"/>
</filter>
<filter id="filter4_f_100_142" x="1425.52" y="232.274" width="661.922" height="682.123" filterUnits="userSpaceOnUse" color-interpolation-filters="sRGB">
<feFlood flood-opacity="0" result="BackgroundImageFix"/>
<feBlend mode="normal" in="SourceGraphic" in2="BackgroundImageFix" result="shape"/>
<feGaussianBlur stdDeviation="125" result="effect1_foregroundBlur_100_142"/>
</filter>
<filter id="filter5_f_100_142" x="-186.127" y="206.78" width="618.824" height="633.648" filterUnits="userSpaceOnUse" color-interpolation-filters="sRGB">
<feFlood flood-opacity="0" result="BackgroundImageFix"/>
<feBlend mode="normal" in="SourceGraphic" in2="BackgroundImageFix" result="shape"/>
<feGaussianBlur stdDeviation="125" result="effect1_foregroundBlur_100_142"/>
</filter>
<filter id="filter6_f_100_142" x="937" y="17.9999" width="1444" height="1346" filterUnits="userSpaceOnUse" color-interpolation-filters="sRGB">
<feFlood flood-opacity="0" result="BackgroundImageFix"/>
<feBlend mode="normal" in="SourceGraphic" in2="BackgroundImageFix" result="shape"/>
<feGaussianBlur stdDeviation="125" result="effect1_foregroundBlur_100_142"/>
</filter>
<clipPath id="clip0_100_142">
<rect width="1920" height="1400" fill="white"/>
</clipPath>
</defs>
</svg>
