<svg width="25" height="25" viewBox="0 0 25 25" fill="none" xmlns="http://www.w3.org/2000/svg">
<g clip-path="url(#clip0_47_1036)">
<path fill-rule="evenodd" clip-rule="evenodd" d="M12.5 0.5C19.13 0.5 24.5 5.87 24.5 12.5C24.5 17.81 21.065 22.295 16.295 23.885C15.695 23.99 15.47 23.63 15.47 23.315C15.47 23.03 15.485 22.085 15.485 21.08C18.5 21.635 19.28 20.345 19.52 19.67C19.655 19.325 20.24 18.26 20.75 17.975C21.17 17.75 21.77 17.195 20.765 17.18C19.82 17.165 19.145 18.05 18.92 18.41C17.84 20.225 16.115 19.715 15.425 19.4C15.32 18.62 15.005 18.095 14.66 17.795C17.33 17.495 20.12 16.46 20.12 11.87C20.12 10.565 19.655 9.485 18.89 8.645C19.01 8.345 19.43 7.115 18.77 5.465C18.77 5.465 17.765 5.15 15.47 6.695C14.51 6.425 13.49 6.29 12.47 6.29C11.45 6.29 10.43 6.425 9.47 6.695C7.175 5.135 6.17 5.465 6.17 5.465C5.51 7.115 5.93 8.345 6.05 8.645C5.285 9.485 4.82 10.55 4.82 11.87C4.82 16.475 7.625 17.495 10.295 17.795C9.86 18.17 9.485 18.89 9.485 20.015C9.485 21.62 9.5 22.91 9.5 23.315C9.5 23.63 9.275 24.005 8.675 23.885C3.935 22.295 0.5 17.795 0.5 12.5C0.5 5.87 5.87 0.5 12.5 0.5Z" fill="#F8FAFC"/>
</g>
<defs>
<clipPath id="clip0_47_1036">
<rect width="24" height="24" fill="white" transform="matrix(-1 0 0 1 24.5 0.5)"/>
</clipPath>
</defs>
</svg>
